<svg xmlns="http://www.w3.org/2000/svg" width="404.765" height="261.108" viewBox="0 0 404.765 261.108">
    <path fill="#b38958" d="M178.972-42.343h28.844a24.886 24.886 0 0 1 2.262 10.557q0 5.09-2.074 6.975t-7.918 1.885h-99.353a32.31 32.31 0 0 1-2.262-11.312q0-4.148 1.98-6.127t6.881-1.98h29.033q1.32-24.7 1.32-42.8H18.536a30.153 30.153 0 0 1-3.771-14.894q0-6.975 4.148-14.894t58.443-86.628q54.3-78.71 56.746-80.595t9.049-1.885h17.156q9.426 0 13.385 2.922t3.959 14.045v157.608H203.1a49.333 49.333 0 0 1 2.262 14.139q0 5.467-1.98 7.824T195-85.138h-17.348q.754 31.106 1.32 42.795zm-41.287-67.115q0-131.4-1.225-131.4t-78.9 131.4zM329.6-42.343q1.508-26.205 1.508-146.673 0-36.008-.754-43.832t-3.393-11.594q-2.639-3.771-8.3-4.9a88.1 88.1 0 0 0-16.213-1.131h-14.131a17.866 17.866 0 0 1-2.262-8.672q0-10.369 26.205-15.742t42.041-5.373q8.107 0 11.971 1.791t5.184 6.693q1.32 4.9 1.32 15.271v82.005q0 105.952 1.32 132.157h42.984a23.28 23.28 0 0 1 2.451 10.557q0 5.09-2.074 6.975t-8.107 1.885H287.563a30.154 30.154 0 0 1-2.451-11.312q0-4.148 2.074-6.127t6.787-1.98z" transform="translate(-14.766 284.033)"/>
</svg>
