<svg xmlns="http://www.w3.org/2000/svg" width="378.491" height="78.889" viewBox="0 0 378.491 78.889">
	<defs>
		<style>
			.cls-1{fill:#fff}
		</style>
	</defs>
	<g id="Group_272" transform="translate(-248.277 -370.783)">
		<path id="Path_2674" d="M290.439 378.7a41.093 41.093 0 0 1 19.037 10.475l16.33-15.09h-35.367zm0 2.38v25.683l17.335-16.016a40.57 40.57 0 0 0-11.171-7.52 44.324 44.324 0 0 0-6.164-2.147m-24.906 5.3l22.586 20.42v-25.9h-22.585zm0 21.873h20.737l-20.736-18.744zm-14.937 8.2h6.63v-8.2h5.987v-20.839L250.6 376zm8.947 0h28.575v-5.876h-28.574zm30.9 0h30.707a39.276 39.276 0 0 0-2.4-9.765 41.838 41.838 0 0 0-9.305-14.321l-19 17.558zm33.043 0h3.736v-40.51L311.141 390.8a44.045 44.045 0 0 1 9.773 15.06 41.685 41.685 0 0 1 2.568 10.594m-15.742 30.892h19.478v-28.574h-3.561a33.282 33.282 0 0 1-2.757 14.645c-1.026 2.452-4.787 10.065-13.16 13.928m-16.151-18.835a2.418 2.418 0 0 0-.793.6.235.235 0 0 0-.021.038.943.943 0 0 0 .058 1.078 1.91 1.91 0 0 0 2.032.4 2.7 2.7 0 0 0 1.668-2.229c.275-1.754-.792-3.555-2.927-4.944a5.581 5.581 0 0 0-3.066-.908 6.772 6.772 0 0 0-3.255.884 10.18 10.18 0 0 0-4.954 9.049 14.786 14.786 0 0 0 4.432 10.746c3.112 2.94 7.706 4.356 13.314 4.1 13.333-.622 18.905-10.559 20.684-14.8a30.748 30.748 0 0 0 2.568-13.749H250.6v28.574h35.987a15.754 15.754 0 0 1-3.413-2.443 17.074 17.074 0 0 1-5.16-12.4 12.519 12.519 0 0 1 6.16-11.105 8.244 8.244 0 0 1 8.7.116c4.166 2.707 4.156 5.964 3.958 7.239a4.969 4.969 0 0 1-3.36 4.111 4.188 4.188 0 0 1-4.441-1.171 3.232 3.232 0 0 1-.313-3.6 2.34 2.34 0 0 1 2.148-1.413c.83 0 1.589.956 2.033 1.486m3.908 21.508c-.093 0-.179 0-.269-.011h-48.256v-78.883l14.937 13.5v-5.7h24.905v-6.812h41.42v77.892h-32.391c-.095.006-.222.01-.351.01" class="cls-1" transform="translate(0 0)" />
		<path id="Path_2675" d="M1456.52 588.9h3.9v-16.6h8.915v-3.347H1447.6v3.347h8.915z" class="cls-1" transform="translate(-842.585 -139.225)" />
		<path id="Path_2676" d="M1362.024 588.9h3.731v-14.925l13.88 14.923h3.566v-19.943h-3.731v14.4l-13.332-14.4h-4.115z" class="cls-1" transform="translate(-782.461 -139.225)" />
		<path id="Path_2677" d="M1285.664 588.9h18.215v-3.347h-14.319v-5.267h12.04v-3.347h-12.04V572.3h13.99v-3.347h-17.885z" class="cls-1" transform="translate(-728.815 -139.225)" />
		<path id="Path_2678" d="M1198.392 588.9h3.1l6.391-15.115h.055V588.9h3.457v-19.945h-5.13l-6.336 14.785-6.227-14.785h-5.239V588.9h3.456v-15.117h.055z" class="cls-1" transform="translate(-660.526 -139.225)" />
		<path id="Path_2679" d="M1118.509 568.955H1107.4V588.9h3.9v-7.736h7.215c3.374 0 8.915 0 8.915-6.09-.006-6.119-5.547-6.119-8.921-6.119zm.85 8.86h-8.065V572.3h8.065c2.222 0 4.17.192 4.17 2.743 0 2.58-1.947 2.772-4.17 2.772z" class="cls-1" transform="translate(-603.575 -139.225)" />
		<path id="Path_2680" d="M1024.073 567.635c-8.529 0-11.54 5.01-11.54 10.314 0 4.024 2.372 10.021 11.54 10.021s11.54-6 11.54-10.021c.001-5.304-3.013-10.314-11.54-10.314zm0 17.084c-3.625 0-7.756-1.492-7.756-6.983 0-4.664 3.332-6.849 7.756-6.849s7.756 2.185 7.756 6.849c0 5.491-4.129 6.983-7.756 6.983z" class="cls-1" transform="translate(-536.927 -138.298)" />
		<path id="Path_2681" d="M939.372 588.9h18.352v-3.456h-14.457v-16.489h-3.9z" class="cls-1" transform="translate(-485.528 -139.225)" />
		<path id="Path_2682" d="M863.012 588.9h18.215v-3.347h-14.32v-5.267h12.043v-3.347h-12.043V572.3H880.9v-3.347h-17.888z" class="cls-1" transform="translate(-431.881 -139.225)" />
		<path id="Path_2683" d="M779.681 588.9h4.06l9.766-19.943h-4.17l-7.626 15.91-7.489-15.91h-4.17z" class="cls-1" transform="translate(-366.573 -139.225)" />
		<path id="Path_2684" d="M700.057 588.9h18.214v-3.347h-14.319v-5.267h12.043v-3.347h-12.043V572.3h13.99v-3.347h-17.885z" class="cls-1" transform="translate(-317.397 -139.225)" />
		<path id="Path_2685" d="M623.062 568.955h-9.6V588.9h9.766c6.584 0 11.192-3.292 11.192-10.095-.001-7.189-5.049-9.85-11.358-9.85zm-1.756 16.6h-3.95V572.3h3.95c6.529 0 9.217 1.673 9.217 6.556 0 4.665-2.578 6.695-9.217 6.695z" class="cls-1" transform="translate(-256.559 -139.225)" />
		<g id="Group_271" transform="translate(356.901 371.675)">
			<path id="Path_2686" d="M653.246 373.783l-15.878 36.125-15.879-36.125h-8.029V416.7h4.781v-38.31h.118l16.882 38.31h4.368l16.764-38.31h.118v38.31h4.781v-42.917z" class="cls-1" transform="translate(-613.46 -373.783)" />
			<path id="Path_2687" d="M1101.972 373.783l-15.82 17.059-15.642-17.059h-6.91l19.125 20.66-20.9 22.254h7.025l17.413-18.653 17.118 18.653h6.848l-20.6-22.313 19.244-20.6z" class="cls-1" transform="translate(-928.463 -373.783)" />
			<path id="Rectangle_648" d="M0 0H5.195V42.914H0z" class="cls-1" transform="translate(199.316)" />
			<path id="Path_2688" d="M1399.766 373.783l-15.879 36.125-15.879-36.125h-8.028V416.7h4.781v-38.31h.118l16.882 38.31h4.368l16.764-38.31h.118v38.31h4.781v-42.917z" class="cls-1" transform="translate(-1137.927 -373.783)" />
			<path id="Path_2689" d="M861.634 373.783h-6.375L833.182 416.7h5.785l5.608-11.157h27.685l5.549 11.157h5.844zm-14.7 27.153l11.51-23.08 11.511 23.08z" class="cls-1" transform="translate(-767.825 -373.783)" />
		</g>
	</g>
</svg>
