<svg xmlns="http://www.w3.org/2000/svg" width="48" height="48" viewBox="0 0 48 48">
    <g>
        <g fill="none" stroke="#b38958" stroke-width="2px" transform="translate(-1744.344 -197) translate(1744.344 197)">
            <circle cx="24" cy="24" r="24" stroke="none"/>
            <circle cx="24" cy="24" r="23"/>
        </g>
        <path fill="#e4e4e4" d="M.457 15.975v-1.668a4.831 4.831 0 0 0 2.194-.407 12.444 12.444 0 0 0 2.837-2.662l6.844-8.395L9.846-.844Q7.857-3.827 5.971-6.167a13.622 13.622 0 0 0-3.116-3.071A2.231 2.231 0 0 0 1.744-9.5q-.263 0-.936.058L.457-11.11a67.325 67.325 0 0 0 6.874-1.141 21.375 21.375 0 0 1 2.047 2.164Q10.987-8.01 13.3-4.441l2.164 3.422 1.813-2.34q2.134-2.72 6.023-8.341 1.521.088 2.281.088.7 0 2.194-.088v1.638a3.6 3.6 0 0 0-1.93.468 27.291 27.291 0 0 0-4.417 4.68l-2.807 3.368L16.807.823l1.083 1.638q.7 1.024 3.759 5.25a68.575 68.575 0 0 0 4.314 5.572 3.5 3.5 0 0 0 1.082.848 5.486 5.486 0 0 0 1.726.175v1.667q-2.047-.117-3.685-.117-1.726 0-3.627.117-1.872-2.369-3.364-4.563l-4.447-6.667a108.067 108.067 0 0 0-8.072 11.232q-1.17-.117-2.576-.117-1.373 0-2.543.117z" transform="translate(-1744.344 -197) translate(1753.773 220.192)"/>
    </g>
</svg>
